<svg width="75" height="75" viewBox="0 0 75 75" fill="none" xmlns="http://www.w3.org/2000/svg">
<path d="M37.5 5.35714C43.8573 5.35714 50.0718 7.24229 55.3576 10.7742C60.6435 14.3061 64.7633 19.3261 67.1961 25.1995C69.629 31.0728 70.2655 37.5357 69.0252 43.7708C67.785 50.0059 64.7237 55.7332 60.2284 60.2284C55.7332 64.7237 50.0059 67.785 43.7708 69.0252C37.5357 70.2655 31.0728 69.6289 25.1995 67.1961C19.3261 64.7633 14.3061 60.6435 10.7742 55.3576C7.2423 50.0717 5.35716 43.8573 5.35716 37.5C5.35716 28.9752 8.74363 20.7995 14.7716 14.7716C20.7995 8.74361 28.9752 5.35714 37.5 5.35714ZM37.5 0C30.0832 0 22.833 2.19934 16.6661 6.31989C10.4993 10.4404 5.69282 16.2971 2.85453 23.1494C0.0162481 30.0016 -0.726377 37.5416 0.720569 44.8159C2.16751 52.0902 5.73904 58.772 10.9835 64.0165C16.228 69.261 22.9098 72.8325 30.1841 74.2794C37.4584 75.7264 44.9984 74.9838 51.8506 72.1455C58.7029 69.3072 64.5596 64.5007 68.6801 58.3339C72.8007 52.167 75 44.9168 75 37.5C75 27.5544 71.0491 18.0161 64.0165 10.9835C56.9839 3.95088 47.4456 0 37.5 0Z" fill="black"/>
<path d="M26.7857 56.2495C26.3049 56.2493 25.8331 56.1198 25.4196 55.8745C25.0198 55.6374 24.6885 55.3004 24.4584 54.8965C24.2283 54.4926 24.1072 54.0358 24.1071 53.5709V21.4281C24.1072 20.9632 24.2283 20.5064 24.4584 20.1025C24.6885 19.6986 25.0198 19.3616 25.4196 19.1245C25.8268 18.8894 26.2887 18.7656 26.7589 18.7656C27.2291 18.7656 27.691 18.8894 28.0982 19.1245L57.5625 35.1959C57.9877 35.4254 58.3429 35.7657 58.5905 36.1807C58.8381 36.5956 58.9688 37.0698 58.9688 37.5531C58.9688 38.0363 58.8381 38.5105 58.5905 38.9254C58.3429 39.3404 57.9877 39.6807 57.5625 39.9102L28.0982 55.9816C27.6904 56.1806 27.2388 56.2728 26.7857 56.2495ZM29.4643 25.9281V49.0709L50.6518 37.4995L29.4643 25.9281Z" fill="black"/>
</svg>
